<svg id="Layer_1" data-name="Layer 1" xmlns="http://www.w3.org/2000/svg" viewBox="0 0 844.51 63.87"><path d="M101.47,128.4H98.81l-.89-.88L97,123.08h-.88c-1.78,2.66-5.33,6.21-14.2,6.21-9.76,0-15.08-5.32-15.08-13.31,0-9.75,7.1-14.19,18.63-14.19a74.15,74.15,0,0,1,10.65.89l.88-.89V99.13c0-8-2.66-11.53-11.53-11.53S74,92,74,96.47l-.89.88H69.53l-.88-.88c0-7.1,5.32-13.31,16.85-13.31,13.31,0,16.86,6.21,16.86,16v28.39ZM97,108l-.88-.89a56.11,56.11,0,0,0-9.76-.88c-10.65,0-14.2,3.54-14.2,9.75,0,5.33,2.67,8.88,10.65,8.88,9.76,0,14.19-7.1,14.19-13.31Z" transform="translate(-66.87 -65.42)"/><path d="M134.29,128.4h-6.21c-6.21,0-10.64-3.54-10.64-9.75V89.37l-.89-.89h-7.1l-.88-.88V84.93l.88-.88h7.1l.89-.89v-8l.88-.89h3.55l.89.89v8l.89.89h10.64l.89.88V87.6l-.89.88H123.65l-.89.89v29.28c0,3.54,1.77,5.32,5.32,5.32h6.21l.89.89v2.66Z" transform="translate(-66.87 -65.42)"/><path d="M210.58,70.74H191.07l-.89.89v55.89l-.89.88h-3.55l-.89-.88V71.63l-.88-.89H164.45l-.89-.89V67.19l.89-.89h46.13l.89.89v2.66Z" transform="translate(-66.87 -65.42)"/><path d="M254.05,128.4H250.5l-.89-.88V100.9c0-8.87-4.43-13.3-11.53-13.3-9.76,0-14.19,6.21-14.19,16v24l-.89.88h-3.55l-.89-.88V67.19l.89-.89H223l.89.89V90.26h.88c2.66-4.44,8-7.1,14.2-7.1,9.76,0,16,6.21,16,17.74v26.62Z" transform="translate(-66.87 -65.42)"/><path d="M269.13,108l-.89.89c0,5.32,3.55,16,15.08,16,7.1,0,10.65-3.55,12.42-8.88l.89-.88h3.55l.89.88c-.89,5.33-5.33,13.31-17.75,13.31-14.19,0-20.4-10.64-20.4-23.06v-1.78c0-12.42,7.09-21.29,19.51-21.29S302,92,302,104.45v2.66l-.88.89Zm27.5-5.32c0-6.21-3.55-15.08-14.2-15.08s-14.19,8.87-14.19,15.08l.89.88h26.61Z" transform="translate(-66.87 -65.42)"/><path d="M331.23,97.35c0-21.29,13.3-31.93,28.38-31.93,12.42,0,22.18,6.21,24,18.63l-.89.88h-3.55l-.89-.88c-1.77-8.87-8-14.2-18.63-14.2-13.3,0-23.06,9.76-23.06,27.5s9.76,27.51,23.06,27.51c10.65,0,16.86-5.33,18.63-15.09l.89-.88h3.55l.89.88c-1.78,13.31-11.54,19.52-24,19.52C344.53,129.29,331.23,118.65,331.23,97.35Z" transform="translate(-66.87 -65.42)"/><path d="M414.61,84.05l.89.88V87.6l-.89.88h-4.43c-8.87,0-12.42,6.21-12.42,15.08v24l-.89.88h-3.55l-.89-.88V84.93l.89-.88H396l.89.88.89,5.33h.89c2.66-4.44,7.09-6.21,12.42-6.21Z" transform="translate(-66.87 -65.42)"/><path d="M426.14,108l-.88.89c0,5.32,3.55,16,15.08,16,7.1,0,10.65-3.55,12.42-8.88l.89-.88h3.54l.89.88c-.89,5.33-5.32,13.31-17.74,13.31-14.2,0-20.41-10.64-20.41-23.06v-1.78c0-12.42,7.1-21.29,19.52-21.29S459,92,459,104.45v2.66l-.89.89Zm27.51-5.32c0-6.21-3.55-15.08-14.2-15.08s-14.19,8.87-14.19,15.08l.88.88h26.62Z" transform="translate(-66.87 -65.42)"/><path d="M498.89,128.4h-2.66l-.89-.88-.89-4.44h-.88c-1.78,2.66-5.33,6.21-14.2,6.21-9.76,0-15.08-5.32-15.08-13.31,0-9.75,7.1-14.19,18.63-14.19a74.15,74.15,0,0,1,10.65.89l.88-.89V99.13c0-8-2.66-11.53-11.53-11.53S471.39,92,471.39,96.47l-.89.88H467l-.89-.88c0-7.1,5.33-13.31,16.86-13.31,13.31,0,16.85,6.21,16.85,16v28.39ZM494.45,108l-.88-.89a56.11,56.11,0,0,0-9.76-.88c-10.65,0-14.2,3.54-14.2,9.75,0,5.33,2.66,8.88,10.65,8.88,9.76,0,14.19-7.1,14.19-13.31Z" transform="translate(-66.87 -65.42)"/><path d="M531.71,128.4H525.5c-6.21,0-10.65-3.54-10.65-9.75V89.37l-.88-.89h-7.1L506,87.6V84.93l.89-.88H514l.88-.89v-8l.89-.89h3.55l.89.89v8l.88.89h10.65l.89.88V87.6l-.89.88H521.06l-.88.89v29.28c0,3.54,1.77,5.32,5.32,5.32h6.21l.89.89v2.66Z" transform="translate(-66.87 -65.42)"/><path d="M545.9,77h-3.55l-.88-.89V70.74l.88-.89h3.55l.89.89v5.32Zm0,51.45h-3.55l-.88-.88V84.93l.88-.88h3.55l.89.88v42.59Z" transform="translate(-66.87 -65.42)"/><path d="M577.84,127.52l-.89.88h-4.44l-.88-.88L554.77,87.6V84.93l.89-.88h2.66l.89.88,15.08,37.26h.88l15.09-37.26.88-.88h2.67l.88.88V87.6Z" transform="translate(-66.87 -65.42)"/><path d="M606.22,108l-.88.89c0,5.32,3.55,16,15.08,16,7.09,0,10.64-3.55,12.42-8.88l.89-.88h3.54l.89.88c-.89,5.33-5.32,13.31-17.74,13.31-14.2,0-20.41-10.64-20.41-23.06v-1.78c0-12.42,7.1-21.29,19.52-21.29s19.52,8.87,19.52,21.29v2.66l-.89.89Zm27.51-5.32c0-6.21-3.55-15.08-14.2-15.08s-14.19,8.87-14.19,15.08l.88.88h26.62Z" transform="translate(-66.87 -65.42)"/><path d="M691.39,129.29c-14.2,0-23.07-7.1-23.07-19.52l.89-.88h3.54l.89.88c0,9.76,6.21,15.09,18.63,15.09,10.65,0,16-5.33,16-12.42,0-8-5.32-10.65-18.63-14.2s-19.52-8-19.52-17.74c0-6.21,3.55-15.08,20.41-15.08,11.53,0,21.29,4.43,21.29,17.74l-.89.89h-3.55l-.88-.89q0-13.3-16-13.31c-12.42,0-15.08,5.33-15.08,10.65,0,8,5.32,10.64,18.63,14.19s19.51,7.1,19.51,17.75C713.56,120.42,709.13,129.29,691.39,129.29Z" transform="translate(-66.87 -65.42)"/><path d="M740.17,124.86c8.88,0,12.43-5.33,13.31-10.65l.89-.89h3.55l.89.89c-.89,8.87-8,15.08-18.64,15.08-11.53,0-20.4-7.1-20.4-23.06s8.87-23.07,20.4-23.07c10.65,0,17.75,6.21,18.64,15.08l-.89.89h-3.55l-.89-.89c-.88-5.32-4.43-10.64-13.31-10.64s-15.08,6.21-15.08,18.63S731.3,124.86,740.17,124.86Z" transform="translate(-66.87 -65.42)"/><path d="M802.27,128.4h-3.54l-.89-.88V100.9c0-8.87-4.44-13.3-11.53-13.3-9.76,0-14.2,6.21-14.2,16v24l-.89.88h-3.55l-.88-.88V67.19l.88-.89h3.55l.89.89V90.26H773c2.66-4.44,8-7.1,14.19-7.1,9.76,0,16,6.21,16,17.74v26.62Z" transform="translate(-66.87 -65.42)"/><path d="M811.14,106.23c0-15.09,8.87-23.07,20.41-23.07s20.4,8,20.4,23.07-8.87,23.06-20.4,23.06S811.14,121.31,811.14,106.23Zm5.33,0c0,11.53,6.2,18.63,15.08,18.63s15.08-7.1,15.08-18.63S840.42,87.6,831.55,87.6,816.47,94.69,816.47,106.23Z" transform="translate(-66.87 -65.42)"/><path d="M857.27,106.23c0-15.09,8.87-23.07,20.4-23.07s20.41,8,20.41,23.07-8.87,23.06-20.41,23.06S857.27,121.31,857.27,106.23Zm5.32,0c0,11.53,6.21,18.63,15.08,18.63s15.09-7.1,15.09-18.63S886.55,87.6,877.67,87.6,862.59,94.69,862.59,106.23Z" transform="translate(-66.87 -65.42)"/><path d="M910.5,128.4H907l-.89-.88V67.19l.89-.89h3.55l.88.89v60.33Z" transform="translate(-66.87 -65.42)"/></svg>